# xmcd
#
# Track frame offsets:
#	150
#	17668
#	35767
#	49869
#	73214
#	89321
#	109906
#	126415
#
# Disc length: 1883 seconds
#
# Revision: 1
# Processed by: cddbd v1.4PL0 Copyright (c) Steve Scherf et al.
# Submitted via: EasyCDDAExtractor 6.0.0.1
#
DISCID=72075908
DTITLE=Jimmy D Smith - Big Time Dreams
DYEAR=2000
DGENRE=Country
TTITLE0=All She Wants
TTITLE1=As A Man
TTITLE2=Country Cruise
TTITLE3=Blink Of An Eye
TTITLE4=Big Time Dreams
TTITLE5=Now Is Your's
TTITLE6=Killin' Me
TTITLE7=Crazy Over You
EXTD=
EXTT0=
EXTT1=
EXTT2=
EXTT3=
EXTT4=
EXTT5=
EXTT6=
EXTT7=
PLAYORDER=
